<svg xmlns="http://www.w3.org/2000/svg" width="1440" height="900" viewBox="0 0 1440 900">
  <rect width="1440" height="900" fill="#f5fbfa"/>
  <rect width="1440" height="72" fill="#fff"/>
  <line x1="0" y1="72" x2="1440" y2="72" stroke="#d7e6e4"/>
  <rect x="28" y="15" width="42" height="42" rx="10" fill="#005958"/>
  <text x="49" y="42" text-anchor="middle" font-family="Arial" font-size="18" font-weight="700" fill="#fff">BQ</text>
  <text x="84" y="43" font-family="Arial" font-size="21" font-weight="700" fill="#173c3b">BibleQuiz.com</text>
  <g font-family="Arial" font-size="15" font-weight="600" fill="#244b49">
    <text x="304" y="43">Site</text><text x="362" y="43">Admin</text>
  </g>
  <rect x="1030" y="17" width="210" height="38" rx="8" fill="#eef5f4"/>
  <text x="1050" y="42" font-family="Arial" font-size="14" fill="#607c7a">Search Admin</text>
  <text x="1398" y="43" text-anchor="end" font-family="Arial" font-size="15" font-weight="600" fill="#244b49">Michael⌄</text>
  <rect x="0" y="72" width="266" height="828" fill="#fff"/>
  <line x1="266" y1="72" x2="266" y2="900" stroke="#d7e6e4"/>
  <text x="24" y="112" font-family="Arial" font-size="12" font-weight="700" fill="#708b89">ADMIN</text>
  <rect x="14" y="128" width="238" height="44" rx="8" fill="#eef5f4"/>
  <text x="34" y="156" font-family="Arial" font-size="15" font-weight="700" fill="#005958">Events</text>
  <text x="34" y="202" font-family="Arial" font-size="15" fill="#3f5d5b">Permissions</text>
  <text x="34" y="244" font-family="Arial" font-size="15" fill="#3f5d5b">Payouts</text>
  <line x1="20" y1="270" x2="246" y2="270" stroke="#d7e6e4"/>
  <text x="24" y="300" font-family="Arial" font-size="12" font-weight="700" fill="#708b89">CURRENT EVENT</text>
  <text x="24" y="330" font-family="Arial" font-size="15" font-weight="700" fill="#173c3b">2026 National Finals</text>
  <text x="24" y="354" font-family="Arial" font-size="13" fill="#708b89">Teen Bible Quiz</text>
  <rect x="14" y="374" width="238" height="40" rx="7" fill="#dceeed"/>
  <text x="34" y="399" font-family="Arial" font-size="14" font-weight="700" fill="#005958">Overview</text>
  <g font-family="Arial" font-size="14" fill="#3f5d5b">
    <text x="34" y="446">Registration</text><text x="224" y="446" text-anchor="end">⌄</text>
    <text x="34" y="488">Scoring</text><text x="224" y="488" text-anchor="end">⌄</text>
    <text x="34" y="530">Reports</text><text x="224" y="530" text-anchor="end">⌄</text>
    <text x="34" y="572">Communication</text>
    <text x="34" y="614">Settings</text><text x="224" y="614" text-anchor="end">⌄</text>
  </g>
  <text x="306" y="116" font-family="Arial" font-size="14" fill="#607c7a">Admin  /  Events  /  2026 National Finals</text>
  <text x="306" y="168" font-family="Arial" font-size="32" font-weight="700" fill="#173c3b">2026 National Finals</text>
  <text x="306" y="198" font-family="Arial" font-size="15" fill="#587371">Event workspace · Tucson, Arizona · July 5–9</text>
  <rect x="1186" y="140" width="170" height="44" rx="8" fill="#005958"/>
  <text x="1271" y="168" text-anchor="middle" font-family="Arial" font-size="15" font-weight="700" fill="#fff">View Public Event</text>
  <rect x="306" y="232" width="1050" height="58" rx="10" fill="#fff" stroke="#d7e6e4"/>
  <g font-family="Arial" font-size="15" font-weight="700">
    <rect x="318" y="242" width="132" height="38" rx="7" fill="#dceeed"/><text x="384" y="266" text-anchor="middle" fill="#005958">Dashboard</text>
    <text x="526" y="266" text-anchor="middle" fill="#587371">Activity</text>
    <text x="626" y="266" text-anchor="middle" fill="#587371">Issues</text>
  </g>
  <g font-family="Arial">
    <rect x="306" y="320" width="320" height="150" rx="12" fill="#fff" stroke="#d7e6e4"/>
    <text x="332" y="354" font-size="13" font-weight="700" fill="#708b89">REGISTRATION</text>
    <text x="332" y="403" font-size="34" font-weight="700" fill="#173c3b">184</text>
    <text x="405" y="403" font-size="15" fill="#587371">people registered</text>
    <text x="332" y="442" font-size="14" font-weight="700" fill="#006b69">Manage registration →</text>
    <rect x="646" y="320" width="320" height="150" rx="12" fill="#fff" stroke="#d7e6e4"/>
    <text x="672" y="354" font-size="13" font-weight="700" fill="#708b89">SCORING</text>
    <text x="672" y="403" font-size="34" font-weight="700" fill="#173c3b">6</text>
    <text x="708" y="403" font-size="15" fill="#587371">databases connected</text>
    <text x="672" y="442" font-size="14" font-weight="700" fill="#006b69">Open scoring →</text>
    <rect x="986" y="320" width="370" height="150" rx="12" fill="#fff" stroke="#d7e6e4"/>
    <text x="1012" y="354" font-size="13" font-weight="700" fill="#708b89">ATTENTION NEEDED</text>
    <text x="1012" y="395" font-size="18" font-weight="700" fill="#173c3b">2 incomplete team records</text>
    <text x="1012" y="425" font-size="15" fill="#587371">Resolve before registration closes</text>
    <text x="1012" y="452" font-size="14" font-weight="700" fill="#006b69">Review issues →</text>
  </g>
  <rect x="306" y="500" width="1050" height="310" rx="12" fill="#fff" stroke="#d7e6e4"/>
  <text x="332" y="540" font-family="Arial" font-size="22" font-weight="700" fill="#173c3b">Quick actions</text>
  <g font-family="Arial" font-size="15" font-weight="700" fill="#244b49">
    <rect x="332" y="570" width="300" height="82" rx="10" fill="#f5fbfa" stroke="#d7e6e4"/><text x="356" y="618">Add teams &amp; quizzers →</text>
    <rect x="652" y="570" width="300" height="82" rx="10" fill="#f5fbfa" stroke="#d7e6e4"/><text x="676" y="618">Configure scoring →</text>
    <rect x="972" y="570" width="300" height="82" rx="10" fill="#f5fbfa" stroke="#d7e6e4"/><text x="996" y="618">Email participants →</text>
    <rect x="332" y="672" width="300" height="82" rx="10" fill="#f5fbfa" stroke="#d7e6e4"/><text x="356" y="720">Review payments →</text>
    <rect x="652" y="672" width="300" height="82" rx="10" fill="#f5fbfa" stroke="#d7e6e4"/><text x="676" y="720">Generate reports →</text>
    <rect x="972" y="672" width="300" height="82" rx="10" fill="#fff8f3" stroke="#e8c6ad"/><text x="996" y="720" fill="#87451d">Event settings →</text>
  </g>
</svg>
