<svg xmlns="http://www.w3.org/2000/svg" width="1440" height="900" viewBox="0 0 1440 900">
  <rect width="1440" height="900" fill="#f5fbfa"/>
  <rect width="1440" height="76" fill="#fff"/>
  <line x1="0" y1="76" x2="1440" y2="76" stroke="#d7e6e4"/>
  <rect x="42" y="18" width="42" height="42" rx="10" fill="#005958"/>
  <text x="63" y="45" text-anchor="middle" font-family="Arial" font-size="18" font-weight="700" fill="#fff">BQ</text>
  <text x="96" y="46" font-family="Arial" font-size="22" font-weight="700" fill="#173c3b">BibleQuiz.com</text>
  <g font-family="Arial" font-size="16" font-weight="600" fill="#244b49">
    <text x="322" y="46">Events &amp; Scores</text><text x="492" y="46">Programs⌄</text><text x="604" y="46">For You⌄</text><text x="706" y="46">Resources⌄</text>
  </g>
  <rect x="842" y="21" width="100" height="38" rx="8" fill="#005958"/><text x="892" y="46" text-anchor="middle" font-family="Arial" font-size="16" font-weight="700" fill="#fff">Register</text>
  <text x="1324" y="46" text-anchor="end" font-family="Arial" font-size="15" font-weight="700" fill="#244b49">Sign In</text>
  <text x="82" y="118" font-family="Arial" font-size="14" fill="#607c7a">Resources  /  Tools &amp; Downloads</text>
  <text x="82" y="174" font-family="Arial" font-size="38" font-weight="700" fill="#173c3b">Tools &amp; Downloads</text>
  <text x="82" y="211" font-family="Arial" font-size="17" fill="#587371">Find current rules, forms, scoresheets, questions, apps, and other useful resources.</text>
  <rect x="82" y="242" width="1276" height="100" rx="12" fill="#fff" stroke="#d7e6e4"/>
  <text x="106" y="272" font-family="Arial" font-size="12" font-weight="700" fill="#708b89">PROGRAM</text>
  <rect x="106" y="286" width="58" height="34" rx="7" fill="#005958"/><text x="135" y="308" text-anchor="middle" font-family="Arial" font-size="13" font-weight="700" fill="#fff">All</text>
  <rect x="172" y="286" width="58" height="34" rx="7" fill="#fff" stroke="#c7d9d7"/><text x="201" y="308" text-anchor="middle" font-family="Arial" font-size="13" font-weight="700" fill="#244b49">JBQ</text>
  <rect x="238" y="286" width="58" height="34" rx="7" fill="#fff" stroke="#c7d9d7"/><text x="267" y="308" text-anchor="middle" font-family="Arial" font-size="13" font-weight="700" fill="#244b49">TBQ</text>
  <text x="356" y="272" font-family="Arial" font-size="12" font-weight="700" fill="#708b89">TOPIC</text>
  <g font-family="Arial" font-size="13" font-weight="700" fill="#244b49">
    <rect x="356" y="286" width="72" height="34" rx="7" fill="#e8f3f2"/><text x="392" y="308" text-anchor="middle">Rules</text>
    <rect x="436" y="286" width="92" height="34" rx="7" fill="#fff" stroke="#c7d9d7"/><text x="482" y="308" text-anchor="middle">Questions</text>
    <rect x="536" y="286" width="70" height="34" rx="7" fill="#fff" stroke="#c7d9d7"/><text x="571" y="308" text-anchor="middle">Forms</text>
    <rect x="614" y="286" width="102" height="34" rx="7" fill="#fff" stroke="#c7d9d7"/><text x="665" y="308" text-anchor="middle">Scoresheets</text>
    <rect x="724" y="286" width="64" height="34" rx="7" fill="#fff" stroke="#c7d9d7"/><text x="756" y="308" text-anchor="middle">Apps</text>
  </g>
  <rect x="1042" y="278" width="286" height="42" rx="8" fill="#eef5f4" stroke="#c7d9d7"/>
  <text x="1062" y="304" font-family="Arial" font-size="14" fill="#607c7a">Search tools and downloads</text>
  <text x="82" y="390" font-family="Arial" font-size="13" font-weight="700" fill="#708b89">CURRENT &amp; FEATURED</text>
  <rect x="82" y="410" width="608" height="168" rx="13" fill="#fff" stroke="#d7e6e4"/>
  <rect x="108" y="436" width="52" height="24" rx="12" fill="#fff2c9"/><text x="134" y="452" text-anchor="middle" font-family="Arial" font-size="11" font-weight="700" fill="#735d12">JBQ</text>
  <rect x="168" y="436" width="62" height="24" rx="12" fill="#e8f3f2"/><text x="199" y="452" text-anchor="middle" font-family="Arial" font-size="11" font-weight="700" fill="#005958">RULES</text>
  <rect x="238" y="436" width="72" height="24" rx="12" fill="#d9f3e5"/><text x="274" y="452" text-anchor="middle" font-family="Arial" font-size="11" font-weight="700" fill="#17653b">CURRENT</text>
  <text x="108" y="495" font-family="Arial" font-size="21" font-weight="700" fill="#173c3b">2026 JBQ Official Rules</text>
  <text x="108" y="524" font-family="Arial" font-size="14" fill="#587371">PDF · Rules · Learn &amp; Train · Tools</text>
  <rect x="512" y="504" width="144" height="44" rx="8" fill="#005958"/><text x="584" y="532" text-anchor="middle" font-family="Arial" font-size="14" font-weight="700" fill="#fff">Download PDF</text>
  <rect x="726" y="410" width="608" height="168" rx="13" fill="#fff" stroke="#d7e6e4"/>
  <rect x="752" y="436" width="52" height="24" rx="12" fill="#dce9f7"/><text x="778" y="452" text-anchor="middle" font-family="Arial" font-size="11" font-weight="700" fill="#24588f">TBQ</text>
  <rect x="812" y="436" width="62" height="24" rx="12" fill="#e8f3f2"/><text x="843" y="452" text-anchor="middle" font-family="Arial" font-size="11" font-weight="700" fill="#005958">RULES</text>
  <rect x="882" y="436" width="72" height="24" rx="12" fill="#d9f3e5"/><text x="918" y="452" text-anchor="middle" font-family="Arial" font-size="11" font-weight="700" fill="#17653b">CURRENT</text>
  <text x="752" y="495" font-family="Arial" font-size="21" font-weight="700" fill="#173c3b">2025–2026 TBQ Official Rules</text>
  <text x="752" y="524" font-family="Arial" font-size="14" fill="#587371">PDF · Rules · Learn &amp; Train · Tools</text>
  <rect x="1156" y="504" width="144" height="44" rx="8" fill="#005958"/><text x="1228" y="532" text-anchor="middle" font-family="Arial" font-size="14" font-weight="700" fill="#fff">Download PDF</text>
  <rect x="82" y="604" width="608" height="168" rx="13" fill="#fff" stroke="#d7e6e4"/>
  <rect x="108" y="630" width="52" height="24" rx="12" fill="#fff2c9"/><text x="134" y="646" text-anchor="middle" font-family="Arial" font-size="11" font-weight="700" fill="#735d12">JBQ</text>
  <rect x="168" y="630" width="52" height="24" rx="12" fill="#e8f3f2"/><text x="194" y="646" text-anchor="middle" font-family="Arial" font-size="11" font-weight="700" fill="#005958">TOOL</text>
  <rect x="228" y="630" width="104" height="24" rx="12" fill="#f1e9fa"/><text x="280" y="646" text-anchor="middle" font-family="Arial" font-size="11" font-weight="700" fill="#69408a">LEARN &amp; TRAIN</text>
  <text x="108" y="689" font-family="Arial" font-size="21" font-weight="700" fill="#173c3b">Question Generator</text>
  <text x="108" y="718" font-family="Arial" font-size="14" fill="#587371">Interactive tool · Questions · Coaches</text>
  <rect x="524" y="698" width="132" height="44" rx="8" fill="#005958"/><text x="590" y="726" text-anchor="middle" font-family="Arial" font-size="14" font-weight="700" fill="#fff">Open Tool</text>
  <rect x="726" y="604" width="608" height="168" rx="13" fill="#fff" stroke="#d7e6e4"/>
  <rect x="752" y="630" width="52" height="24" rx="12" fill="#dce9f7"/><text x="778" y="646" text-anchor="middle" font-family="Arial" font-size="11" font-weight="700" fill="#24588f">TBQ</text>
  <rect x="812" y="630" width="92" height="24" rx="12" fill="#e8f3f2"/><text x="858" y="646" text-anchor="middle" font-family="Arial" font-size="11" font-weight="700" fill="#005958">SCORESHEET</text>
  <rect x="912" y="630" width="118" height="24" rx="12" fill="#f1e9fa"/><text x="971" y="646" text-anchor="middle" font-family="Arial" font-size="11" font-weight="700" fill="#69408a">EVENT COORDINATOR</text>
  <text x="752" y="689" font-family="Arial" font-size="21" font-weight="700" fill="#173c3b">Free Excel Scoresheet</text>
  <text x="752" y="718" font-family="Arial" font-size="14" fill="#587371">XLS · Scoresheets · Event tools</text>
  <rect x="1168" y="698" width="132" height="44" rx="8" fill="#005958"/><text x="1234" y="726" text-anchor="middle" font-family="Arial" font-size="14" font-weight="700" fill="#fff">Download</text>
</svg>
