<svg xmlns="http://www.w3.org/2000/svg" width="1440" height="900" viewBox="0 0 1440 900">
  <rect width="1440" height="900" fill="#f5fbfa"/>
  <rect width="1440" height="76" fill="#fff"/>
  <line x1="0" y1="76" x2="1440" y2="76" stroke="#d7e6e4"/>
  <rect x="42" y="18" width="42" height="42" rx="10" fill="#005958"/>
  <text x="63" y="45" text-anchor="middle" font-family="Arial" font-size="18" font-weight="700" fill="#fff">BQ</text>
  <text x="96" y="46" font-family="Arial" font-size="22" font-weight="700" fill="#173c3b">BibleQuiz.com</text>
  <g font-family="Arial" font-size="16" font-weight="600" fill="#244b49">
    <text x="342" y="46">Events &amp; Scores</text><text x="492" y="46">Programs⌄</text><text x="604" y="46">For You⌄</text><text x="706" y="46">Resources⌄</text>
  </g>
  <rect x="842" y="21" width="100" height="38" rx="8" fill="#005958"/><text x="892" y="46" text-anchor="middle" font-family="Arial" font-size="16" font-weight="700" fill="#fff">Register</text>
  <rect x="1000" y="21" width="205" height="38" rx="8" fill="#eef5f4" stroke="#c7d9d7"/>
  <text x="1020" y="46" font-family="Arial" font-size="15" fill="#607c7a">Search BibleQuiz.com</text>
  <text x="1324" y="46" text-anchor="end" font-family="Arial" font-size="15" font-weight="700" fill="#244b49">Sign In</text>
  <text x="82" y="144" font-family="Arial" font-size="42" font-weight="700" fill="#173c3b">Events &amp; Scores</text>
  <text x="82" y="184" font-family="Arial" font-size="18" fill="#587371">Follow live scores, view recent results, or register for an upcoming event.</text>
  <rect x="82" y="220" width="72" height="38" rx="7" fill="#005958"/><text x="118" y="244" text-anchor="middle" font-family="Arial" font-size="14" font-weight="700" fill="#fff">All</text>
  <rect x="162" y="220" width="72" height="38" rx="7" fill="#fff" stroke="#c7d9d7"/><text x="198" y="244" text-anchor="middle" font-family="Arial" font-size="14" font-weight="700" fill="#244b49">JBQ</text>
  <rect x="242" y="220" width="72" height="38" rx="7" fill="#fff" stroke="#c7d9d7"/><text x="278" y="244" text-anchor="middle" font-family="Arial" font-size="14" font-weight="700" fill="#244b49">TBQ</text>
  <rect x="1074" y="214" width="250" height="46" rx="8" fill="#e8f3f2" stroke="#9fc9c5"/>
  <text x="1199" y="243" text-anchor="middle" font-family="Arial" font-size="14" font-weight="700" fill="#005958">Show Registration Open</text>
  <text x="82" y="318" font-family="Arial" font-size="26" font-weight="700" fill="#173c3b">Live now</text>
  <rect x="82" y="344" width="1252" height="152" rx="14" fill="#fff" stroke="#d7e6e4"/>
  <circle cx="142" cy="404" r="34" fill="#3a77bd"/><text x="142" y="411" text-anchor="middle" font-family="Arial" font-size="14" font-weight="700" fill="#fff">TBQ</text>
  <rect x="194" y="368" width="56" height="24" rx="12" fill="#d9f3e5"/><text x="222" y="384" text-anchor="middle" font-family="Arial" font-size="11" font-weight="700" fill="#17653b">LIVE</text>
  <text x="194" y="426" font-family="Arial" font-size="22" font-weight="700" fill="#173c3b">2026 National Finals</text>
  <text x="194" y="458" font-family="Arial" font-size="15" fill="#587371">Tucson, Arizona · Scores updating now</text>
  <rect x="1122" y="382" width="170" height="46" rx="8" fill="#005958"/>
  <text x="1207" y="411" text-anchor="middle" font-family="Arial" font-size="15" font-weight="700" fill="#fff">View Live Scores</text>
  <text x="82" y="554" font-family="Arial" font-size="26" font-weight="700" fill="#173c3b">Upcoming</text>
  <rect x="82" y="580" width="608" height="214" rx="14" fill="#fff" stroke="#d7e6e4"/>
  <circle cx="138" cy="636" r="30" fill="#efb63c"/><text x="138" y="643" text-anchor="middle" font-family="Arial" font-size="13" font-weight="700" fill="#312500">JBQ</text>
  <rect x="184" y="605" width="132" height="24" rx="12" fill="#fff2c9"/><text x="250" y="621" text-anchor="middle" font-family="Arial" font-size="11" font-weight="700" fill="#735d12">REGISTRATION OPEN</text>
  <text x="184" y="660" font-family="Arial" font-size="20" font-weight="700" fill="#173c3b">North Central Regional</text>
  <text x="184" y="690" font-family="Arial" font-size="14" fill="#587371">August 14–15 · Minneapolis, Minnesota</text>
  <rect x="112" y="724" width="156" height="44" rx="8" fill="#fff" stroke="#005958"/><text x="190" y="752" text-anchor="middle" font-family="Arial" font-size="14" font-weight="700" fill="#005958">View Event</text>
  <rect x="280" y="724" width="132" height="44" rx="8" fill="#005958"/><text x="346" y="752" text-anchor="middle" font-family="Arial" font-size="14" font-weight="700" fill="#fff">Register</text>
  <rect x="726" y="580" width="608" height="214" rx="14" fill="#fff" stroke="#d7e6e4"/>
  <circle cx="782" cy="636" r="30" fill="#3a77bd"/><text x="782" y="643" text-anchor="middle" font-family="Arial" font-size="13" font-weight="700" fill="#fff">TBQ</text>
  <rect x="828" y="605" width="132" height="24" rx="12" fill="#fff2c9"/><text x="894" y="621" text-anchor="middle" font-family="Arial" font-size="11" font-weight="700" fill="#735d12">REGISTRATION OPEN</text>
  <text x="828" y="660" font-family="Arial" font-size="20" font-weight="700" fill="#173c3b">Southwest Invitational</text>
  <text x="828" y="690" font-family="Arial" font-size="14" fill="#587371">September 4–5 · Phoenix, Arizona</text>
  <rect x="756" y="724" width="156" height="44" rx="8" fill="#fff" stroke="#005958"/><text x="834" y="752" text-anchor="middle" font-family="Arial" font-size="14" font-weight="700" fill="#005958">View Event</text>
  <rect x="924" y="724" width="132" height="44" rx="8" fill="#005958"/><text x="990" y="752" text-anchor="middle" font-family="Arial" font-size="14" font-weight="700" fill="#fff">Register</text>
</svg>
