<svg xmlns="http://www.w3.org/2000/svg" width="1440" height="900" viewBox="0 0 1440 900">
  <rect width="1440" height="900" fill="#f5fbfa"/>
  <rect width="1440" height="76" fill="#fff"/>
  <line x1="0" y1="76" x2="1440" y2="76" stroke="#d7e6e4"/>
  <rect x="42" y="18" width="42" height="42" rx="10" fill="#005958"/>
  <text x="63" y="45" text-anchor="middle" font-family="Arial" font-size="18" font-weight="700" fill="#fff">BQ</text>
  <text x="96" y="46" font-family="Arial" font-size="22" font-weight="700" fill="#173c3b">BibleQuiz.com</text>
  <g font-family="Arial" font-size="16" font-weight="600" fill="#244b49">
    <text x="322" y="46">Events &amp; Scores</text><text x="492" y="46">Programs⌄</text><text x="604" y="46">For You⌄</text><text x="706" y="46">Resources⌄</text>
  </g>
  <rect x="860" y="21" width="100" height="38" rx="8" fill="#005958"/><text x="910" y="46" text-anchor="middle" font-family="Arial" font-size="16" font-weight="700" fill="#fff">Register</text>
  <text x="1320" y="46" text-anchor="end" font-family="Arial" font-size="15" font-weight="600" fill="#244b49">Michael⌄</text>
  <text x="82" y="120" font-family="Arial" font-size="14" fill="#607c7a">Events &amp; Scores  /  TBQ  /  2026 National Finals</text>
  <circle cx="120" cy="182" r="34" fill="#3a77bd"/>
  <text x="120" y="189" text-anchor="middle" font-family="Arial" font-size="15" font-weight="700" fill="#fff">TBQ</text>
  <text x="172" y="175" font-family="Arial" font-size="34" font-weight="700" fill="#173c3b">2026 National Finals</text>
  <text x="172" y="207" font-family="Arial" font-size="16" fill="#587371">July 5–9 · Tucson, Arizona</text>
  <rect x="872" y="142" width="156" height="46" rx="8" fill="#005958"/>
  <text x="950" y="171" text-anchor="middle" font-family="Arial" font-size="15" font-weight="700" fill="#fff">Download Excel</text>
  <rect x="1040" y="142" width="100" height="46" rx="8" fill="#fff" stroke="#005958"/>
  <text x="1090" y="171" text-anchor="middle" font-family="Arial" font-size="15" font-weight="700" fill="#005958">Print</text>
  <rect x="1152" y="142" width="130" height="46" rx="8" fill="#fff" stroke="#005958"/>
  <text x="1217" y="171" text-anchor="middle" font-family="Arial" font-size="15" font-weight="700" fill="#005958">★ Favorites</text>
  <rect x="1294" y="142" width="64" height="46" rx="8" fill="#fff" stroke="#c7d9d7"/>
  <text x="1326" y="171" text-anchor="middle" font-family="Arial" font-size="20" font-weight="700" fill="#244b49">•••</text>
  <rect x="82" y="242" width="1276" height="60" rx="10" fill="#fff" stroke="#d7e6e4"/>
  <g font-family="Arial" font-size="15" font-weight="700">
    <rect x="96" y="252" width="104" height="40" rx="8" fill="#dceeed"/><text x="148" y="277" text-anchor="middle" fill="#005958">Stats</text>
    <text x="260" y="277" text-anchor="middle" fill="#587371">Teams</text><text x="370" y="277" text-anchor="middle" fill="#587371">Rooms</text>
    <text x="470" y="277" text-anchor="middle" fill="#587371">Grid</text><text x="586" y="277" text-anchor="middle" fill="#587371">Coordinator</text>
    <text x="724" y="277" text-anchor="middle" fill="#587371">Q Stats</text>
  </g>
  <rect x="82" y="328" width="1276" height="492" rx="12" fill="#fff" stroke="#d7e6e4"/>
  <text x="112" y="372" font-family="Arial" font-size="24" font-weight="700" fill="#173c3b">Team standings</text>
  <rect x="1060" y="346" width="268" height="42" rx="8" fill="#f5fbfa" stroke="#c7d9d7"/>
  <text x="1080" y="372" font-family="Arial" font-size="14" fill="#607c7a">Search teams or quizzers</text>
  <g font-family="Arial" font-size="14">
    <rect x="112" y="414" width="1216" height="42" fill="#eef5f4"/>
    <text x="132" y="440" font-weight="700" fill="#244b49">Rank</text><text x="220" y="440" font-weight="700" fill="#244b49">Team</text><text x="620" y="440" font-weight="700" fill="#244b49">Church</text><text x="1110" y="440" font-weight="700" fill="#244b49">Record</text><text x="1248" y="440" font-weight="700" fill="#244b49">Points</text>
    <g fill="#3f5d5b">
      <text x="142" y="492">1</text><text x="220" y="492">Naperville A</text><text x="620" y="492">Calvary Church</text><text x="1110" y="492">8–1</text><text x="1248" y="492">1,245</text>
      <line x1="112" y1="510" x2="1328" y2="510" stroke="#e0eceb"/>
      <text x="142" y="548">2</text><text x="220" y="548">Burien A</text><text x="620" y="548">New Life</text><text x="1110" y="548">7–2</text><text x="1248" y="548">1,180</text>
      <line x1="112" y1="566" x2="1328" y2="566" stroke="#e0eceb"/>
      <text x="142" y="604">3</text><text x="220" y="604">Houston A</text><text x="620" y="604">First Assembly</text><text x="1110" y="604">7–2</text><text x="1248" y="604">1,115</text>
    </g>
  </g>
  <rect x="1020" y="199" width="338" height="32" rx="6" fill="#fff8dc" stroke="#e8cf78"/>
  <text x="1189" y="220" text-anchor="middle" font-family="Arial" font-size="13" fill="#665316">Common actions stay labeled and visible</text>
</svg>
