<svg xmlns="http://www.w3.org/2000/svg" width="390" height="844" viewBox="0 0 390 844">
  <rect width="390" height="844" fill="#f5fbfa"/>
  <rect width="390" height="66" fill="#fff"/>
  <line x1="0" y1="66" x2="390" y2="66" stroke="#d7e6e4"/>
  <rect x="18" y="14" width="38" height="38" rx="9" fill="#005958"/>
  <text x="37" y="39" text-anchor="middle" font-family="Arial" font-size="15" font-weight="700" fill="#fff">BQ</text>
  <text x="68" y="39" font-family="Arial" font-size="19" font-weight="700" fill="#173c3b">BibleQuiz.com</text>
  <text x="306" y="38" text-anchor="end" font-family="Arial" font-size="13" font-weight="700" fill="#005958">Sign In</text>
  <rect x="330" y="14" width="42" height="38" rx="8" fill="#eef5f4"/>
  <text x="351" y="40" text-anchor="middle" font-family="Arial" font-size="24" fill="#244b49">×</text>
  <rect x="0" y="66" width="390" height="778" fill="#fff"/>
  <rect x="18" y="86" width="354" height="44" rx="8" fill="#eef5f4" stroke="#d7e6e4"/>
  <text x="38" y="113" font-family="Arial" font-size="15" fill="#607c7a">Search BibleQuiz.com</text>
  <g font-family="Arial" fill="#173c3b">
    <text x="22" y="170" font-size="17" font-weight="700">Events &amp; Scores</text>
    <line x1="18" y1="188" x2="372" y2="188" stroke="#d7e6e4"/>
    <text x="22" y="226" font-size="17" font-weight="700">Programs</text>
    <text x="350" y="226" text-anchor="middle" font-size="18">⌃</text>
    <rect x="22" y="244" width="346" height="58" rx="9" fill="#f5fbfa"/>
    <circle cx="50" cy="273" r="17" fill="#efb63c"/>
    <text x="50" y="278" text-anchor="middle" font-size="10" font-weight="700">JBQ</text>
    <text x="78" y="279" font-size="16" font-weight="700">Junior Bible Quiz</text>
    <rect x="22" y="312" width="346" height="58" rx="9" fill="#f5fbfa"/>
    <circle cx="50" cy="341" r="17" fill="#3a77bd"/>
    <text x="50" y="346" text-anchor="middle" font-size="10" font-weight="700" fill="#fff">TBQ</text>
    <text x="78" y="347" font-size="16" font-weight="700">Teen Bible Quiz</text>
    <line x1="18" y1="392" x2="372" y2="392" stroke="#d7e6e4"/>
    <text x="22" y="430" font-size="17" font-weight="700">For You</text>
    <text x="350" y="430" text-anchor="middle" font-size="18">⌄</text>
    <line x1="18" y1="450" x2="372" y2="450" stroke="#d7e6e4"/>
    <text x="22" y="488" font-size="17" font-weight="700">Resources</text>
    <text x="350" y="488" text-anchor="middle" font-size="18">⌄</text>
  </g>
  <rect x="18" y="526" width="354" height="50" rx="9" fill="#005958"/>
  <text x="195" y="558" text-anchor="middle" font-family="Arial" font-size="17" font-weight="700" fill="#fff">Register</text>
  <rect x="18" y="590" width="354" height="50" rx="9" fill="#fff" stroke="#005958"/>
  <text x="195" y="622" text-anchor="middle" font-family="Arial" font-size="17" font-weight="700" fill="#005958">Sign In</text>
  <text x="22" y="684" font-family="Arial" font-size="13" font-weight="700" fill="#708b89">QUICK LINKS</text>
  <g font-family="Arial" font-size="15" fill="#244b49">
    <text x="22" y="720">Apps</text><text x="210" y="720">Quizzer Search</text>
    <text x="22" y="754">News</text><text x="210" y="754">Subscribe</text>
  </g>
  <line x1="18" y1="782" x2="372" y2="782" stroke="#d7e6e4"/>
  <text x="22" y="816" font-family="Arial" font-size="13" fill="#708b89">Terms · Privacy</text>
</svg>
