<svg xmlns="http://www.w3.org/2000/svg" width="1440" height="900" viewBox="0 0 1440 900">
  <rect width="1440" height="900" fill="#f5fbfa"/>
  <rect width="1440" height="76" fill="#ffffff"/>
  <line x1="0" y1="76" x2="1440" y2="76" stroke="#d7e6e4"/>
  <rect x="42" y="18" width="42" height="42" rx="10" fill="#005958"/>
  <text x="63" y="45" text-anchor="middle" font-family="Arial" font-size="18" font-weight="700" fill="#fff">BQ</text>
  <text x="96" y="46" font-family="Arial" font-size="22" font-weight="700" fill="#173c3b">BibleQuiz.com</text>
  <g font-family="Arial" font-size="16" font-weight="600" fill="#244b49">
    <text x="294" y="46">Events &amp; Scores</text>
    <text x="458" y="46">Programs⌄</text>
    <text x="570" y="46">For You⌄</text>
    <text x="672" y="46">Resources⌄</text>
  </g>
  <rect x="808" y="21" width="100" height="38" rx="8" fill="#005958"/>
  <text x="858" y="46" text-anchor="middle" font-family="Arial" font-size="16" font-weight="700" fill="#fff">Register</text>
  <rect x="1010" y="21" width="205" height="38" rx="8" fill="#eef5f4" stroke="#c7d9d7"/>
  <text x="1030" y="46" font-family="Arial" font-size="15" fill="#607c7a">Search BibleQuiz.com</text>
  <text x="1255" y="46" font-family="Arial" font-size="15" font-weight="600" fill="#244b49">Sign In</text>
  <rect x="432" y="70" width="600" height="300" rx="12" fill="#fff" stroke="#c7d9d7"/>
  <text x="464" y="111" font-family="Arial" font-size="14" font-weight="700" fill="#708b89">PROGRAMS</text>
  <rect x="464" y="132" width="248" height="152" rx="12" fill="#f2f8f7" stroke="#d7e6e4"/>
  <circle cx="506" cy="174" r="25" fill="#efb63c"/>
  <text x="506" y="181" text-anchor="middle" font-family="Arial" font-size="14" font-weight="700" fill="#312500">JBQ</text>
  <text x="544" y="169" font-family="Arial" font-size="18" font-weight="700" fill="#173c3b">Junior Bible Quiz</text>
  <text x="544" y="194" font-family="Arial" font-size="14" fill="#587371">For children in grades 1–6</text>
  <text x="486" y="244" font-family="Arial" font-size="14" font-weight="700" fill="#006b69">Explore JBQ →</text>
  <rect x="744" y="132" width="248" height="152" rx="12" fill="#f2f8f7" stroke="#d7e6e4"/>
  <circle cx="786" cy="174" r="25" fill="#3a77bd"/>
  <text x="786" y="181" text-anchor="middle" font-family="Arial" font-size="14" font-weight="700" fill="#fff">TBQ</text>
  <text x="824" y="169" font-family="Arial" font-size="18" font-weight="700" fill="#173c3b">Teen Bible Quiz</text>
  <text x="824" y="194" font-family="Arial" font-size="14" fill="#587371">For middle and high school</text>
  <text x="766" y="244" font-family="Arial" font-size="14" font-weight="700" fill="#006b69">Explore TBQ →</text>
  <line x1="464" y1="308" x2="992" y2="308" stroke="#d7e6e4"/>
  <text x="464" y="340" font-family="Arial" font-size="14" fill="#587371">Not sure where to start?</text>
  <text x="622" y="340" font-family="Arial" font-size="14" font-weight="700" fill="#006b69">Choose who you are →</text>
  <text x="82" y="160" font-family="Arial" font-size="48" font-weight="700" fill="#173c3b">Find your place</text>
  <text x="82" y="204" font-family="Arial" font-size="20" fill="#587371">Choose a path or jump straight to events.</text>
  <rect x="82" y="244" width="190" height="50" rx="9" fill="#005958"/>
  <text x="177" y="276" text-anchor="middle" font-family="Arial" font-size="16" font-weight="700" fill="#fff">Events &amp; Scores</text>
  <rect x="284" y="244" width="152" height="50" rx="9" fill="#fff" stroke="#005958"/>
  <text x="360" y="276" text-anchor="middle" font-family="Arial" font-size="16" font-weight="700" fill="#005958">Register</text>
  <text x="82" y="415" font-family="Arial" font-size="28" font-weight="700" fill="#173c3b">Popular right now</text>
  <g font-family="Arial">
    <rect x="82" y="444" width="390" height="154" rx="12" fill="#fff" stroke="#d7e6e4"/>
    <text x="108" y="480" font-size="13" font-weight="700" fill="#006b69">LIVE EVENT</text>
    <text x="108" y="515" font-size="20" font-weight="700" fill="#173c3b">2026 National Finals</text>
    <text x="108" y="544" font-size="15" fill="#587371">Scores, schedules, teams, and rooms</text>
    <text x="108" y="575" font-size="15" font-weight="700" fill="#006b69">View event →</text>
    <rect x="494" y="444" width="390" height="154" rx="12" fill="#fff" stroke="#d7e6e4"/>
    <text x="520" y="480" font-size="13" font-weight="700" fill="#006b69">FOR PARENTS</text>
    <text x="520" y="515" font-size="20" font-weight="700" fill="#173c3b">Getting started with JBQ</text>
    <text x="520" y="544" font-size="15" fill="#587371">Program basics, registration, and resources</text>
    <text x="520" y="575" font-size="15" font-weight="700" fill="#006b69">Choose JBQ →</text>
    <rect x="906" y="444" width="390" height="154" rx="12" fill="#fff" stroke="#d7e6e4"/>
    <text x="932" y="480" font-size="13" font-weight="700" fill="#006b69">FOR QUIZZERS</text>
    <text x="932" y="515" font-size="20" font-weight="700" fill="#173c3b">TBQ season resources</text>
    <text x="932" y="544" font-size="15" fill="#587371">Study, compete, and follow results</text>
    <text x="932" y="575" font-size="15" font-weight="700" fill="#006b69">Choose TBQ →</text>
  </g>
  <text x="82" y="676" font-family="Arial" font-size="28" font-weight="700" fill="#173c3b">Browse by audience</text>
  <g font-family="Arial" font-size="16" font-weight="700" fill="#244b49">
    <rect x="82" y="704" width="276" height="86" rx="12" fill="#fff" stroke="#d7e6e4"/><text x="112" y="755">Quizzer →</text>
    <rect x="378" y="704" width="276" height="86" rx="12" fill="#fff" stroke="#d7e6e4"/><text x="408" y="755">Parent →</text>
    <rect x="674" y="704" width="276" height="86" rx="12" fill="#fff" stroke="#d7e6e4"/><text x="704" y="755">Coach →</text>
    <rect x="970" y="704" width="326" height="86" rx="12" fill="#fff" stroke="#d7e6e4"/><text x="1000" y="755">Event Coordinator →</text>
  </g>
</svg>
