<svg xmlns="http://www.w3.org/2000/svg" width="1440" height="900" viewBox="0 0 1440 900">
  <rect width="1440" height="900" fill="#f5fbfa"/>
  <rect width="1440" height="76" fill="#fff"/>
  <line x1="0" y1="76" x2="1440" y2="76" stroke="#d7e6e4"/>
  <rect x="42" y="18" width="42" height="42" rx="10" fill="#005958"/>
  <text x="63" y="45" text-anchor="middle" font-family="Arial" font-size="18" font-weight="700" fill="#fff">BQ</text>
  <text x="96" y="46" font-family="Arial" font-size="22" font-weight="700" fill="#173c3b">BibleQuiz.com</text>
  <g font-family="Arial" font-size="16" font-weight="600" fill="#244b49">
    <text x="274" y="46">Events &amp; Scores</text><text x="444" y="46">Programs⌄</text><text x="556" y="46">For You⌄</text>
    <rect x="658" y="17" width="122" height="44" rx="8" fill="#e1f0ef"/><text x="674" y="46" fill="#005958">Resources⌃</text>
  </g>
  <rect x="808" y="21" width="100" height="38" rx="8" fill="#005958"/><text x="858" y="46" text-anchor="middle" font-family="Arial" font-size="16" font-weight="700" fill="#fff">Register</text>
  <text x="1324" y="46" text-anchor="end" font-family="Arial" font-size="15" font-weight="700" fill="#244b49">Sign In</text>
  <rect x="186" y="70" width="1068" height="430" rx="14" fill="#fff" stroke="#c7d9d7"/>
  <text x="222" y="112" font-family="Arial" font-size="14" font-weight="700" fill="#708b89">RESOURCES</text>
  <line x1="543" y1="132" x2="543" y2="454" stroke="#d7e6e4"/>
  <line x1="894" y1="132" x2="894" y2="454" stroke="#d7e6e4"/>
  <g font-family="Arial">
    <circle cx="250" cy="162" r="21" fill="#efb63c"/><text x="250" y="168" text-anchor="middle" font-size="11" font-weight="700" fill="#312500">JBQ</text>
    <text x="284" y="168" font-size="20" font-weight="700" fill="#173c3b">Junior Bible Quiz</text>
    <text x="222" y="212" font-size="15" font-weight="700" fill="#006b69">Current &amp; Next Season</text>
    <text x="222" y="246" font-size="15" fill="#3f5d5b">Rules</text>
    <text x="222" y="280" font-size="15" fill="#3f5d5b">Question Generator</text>
    <text x="222" y="314" font-size="15" fill="#3f5d5b">Past Seasons</text>
    <text x="222" y="366" font-size="14" fill="#708b89">A shorter list reflects the smaller</text>
    <text x="222" y="388" font-size="14" fill="#708b89">JBQ content collection.</text>
    <text x="222" y="438" font-size="15" font-weight="700" fill="#006b69">All JBQ resources →</text>
    <circle cx="601" cy="162" r="21" fill="#3a77bd"/><text x="601" y="168" text-anchor="middle" font-size="11" font-weight="700" fill="#fff">TBQ</text>
    <text x="635" y="168" font-size="20" font-weight="700" fill="#173c3b">Teen Bible Quiz</text>
    <text x="573" y="212" font-size="15" font-weight="700" fill="#006b69">Current &amp; Next Season</text>
    <text x="573" y="246" font-size="15" fill="#3f5d5b">Training for Quizzers &amp; Coaches</text>
    <text x="573" y="280" font-size="15" fill="#3f5d5b">Questions, Downloads &amp; Products</text>
    <text x="573" y="314" font-size="15" fill="#3f5d5b">Scholarships</text>
    <text x="573" y="348" font-size="15" fill="#3f5d5b">History, Awards &amp; Records</text>
    <text x="573" y="382" font-size="15" fill="#3f5d5b">Past Seasons</text>
    <text x="573" y="438" font-size="15" font-weight="700" fill="#006b69">All TBQ resources →</text>
    <text x="930" y="168" font-size="20" font-weight="700" fill="#173c3b">Tools &amp; Downloads</text>
    <text x="930" y="212" font-size="15" fill="#3f5d5b">Apps</text>
    <text x="930" y="246" font-size="15" fill="#3f5d5b">Question Generator</text>
    <text x="930" y="280" font-size="15" fill="#3f5d5b">Rules &amp; Forms</text>
    <text x="930" y="314" font-size="15" fill="#3f5d5b">Scoresheets</text>
    <text x="930" y="348" font-size="15" fill="#3f5d5b">Quizzer Search</text>
    <text x="930" y="382" font-size="15" fill="#3f5d5b">News, Wiki &amp; Subscribe</text>
    <text x="930" y="438" font-size="15" font-weight="700" fill="#006b69">All tools &amp; downloads →</text>
  </g>
  <text x="82" y="590" font-family="Arial" font-size="42" font-weight="700" fill="#173c3b">Resources without the giant tree</text>
  <text x="82" y="632" font-family="Arial" font-size="19" fill="#587371">Curated entry points lead to existing content URLs, archives, and search.</text>
  <rect x="82" y="682" width="1276" height="124" rx="14" fill="#fff" stroke="#d7e6e4"/>
  <text x="112" y="722" font-family="Arial" font-size="18" font-weight="700" fill="#173c3b">Can’t find something?</text>
  <text x="112" y="756" font-family="Arial" font-size="15" fill="#587371">Search all BibleQuiz.com content, including past seasons and the Wiki.</text>
  <rect x="930" y="717" width="390" height="48" rx="8" fill="#eef5f4" stroke="#c7d9d7"/>
  <text x="954" y="747" font-family="Arial" font-size="15" fill="#607c7a">Search resources</text>
</svg>
